<?xml version="1.0" encoding="UTF-8"?>
<svg width="725px" height="345px" viewBox="0 0 725 345" version="1.1" xmlns="http://www.w3.org/2000/svg" xmlns:xlink="http://www.w3.org/1999/xlink">
    <!-- Generator: Sketch 57 (83077) - https://sketch.com -->
    <title>astronaut</title>
    <desc>Created with Sketch.</desc>
    <defs>
        <circle id="path-1" cx="87.5" cy="87.5" r="70.5"></circle>
    </defs>
    <g id="Page-1" stroke="none" stroke-width="1" fill="none" fill-rule="evenodd">
        <g id="Home" transform="translate(-532.000000, -590.000000)">
            <g id="top">
                <g id="Artboard-1" transform="translate(-255.000000, -199.000000)">
                    <g id="astronaut" transform="translate(1120.303830, 954.589086) rotate(19.000000) translate(-1120.303830, -954.589086) translate(785.303830, 725.589086)">
                        <rect id="Rectangle" fill="#00FFFF" x="58" y="218" width="202" height="194" rx="81"></rect>
                        <rect id="Rectangle" fill="#FFFFFF" x="78" y="338" width="46" height="120" rx="23"></rect>
                        <rect id="Rectangle-Copy" fill="#FFFFFF" x="193" y="338" width="46" height="120" rx="23"></rect>
                        <rect id="Rectangle" fill="#DCDCDC" transform="translate(233.773194, 277.221025) rotate(39.000000) translate(-233.773194, -277.221025) " x="205.773194" y="259.721025" width="56" height="35" rx="17.5"></rect>
                        <rect id="Rectangle" fill="#DCDCDC" x="78" y="216" width="161" height="210" rx="64"></rect>
                        <rect id="Rectangle" fill="#FF0056" x="108" y="310" width="99" height="44" rx="17.5"></rect>
                        <path d="M94.7739472,244.019878 L98.0745619,259.034095 C87.6551879,267.376318 82.9683041,275.593726 84.0139106,283.68632 C85.0595171,291.778914 90.7336812,297.744343 101.036403,301.582606 L97.6593379,314.683051 C84.151221,306.067537 76.7513475,295.735293 75.4597175,283.68632 C74.1680876,271.637347 80.6061641,258.4152 94.7739472,244.019878 Z" id="Rectangle" fill="#00FFFF" transform="translate(88.167124, 279.351465) rotate(-165.000000) translate(-88.167124, -279.351465) "></path>
                        <path d="M233.661385,239.868101 L237.218472,254.882318 C225.989467,263.22454 220.938391,271.441949 222.065246,279.534543 C223.192101,287.627137 229.307173,293.592566 240.410462,297.430829 L236.770984,310.531274 C222.213226,301.915759 214.23835,291.583516 212.846354,279.534543 C211.454359,267.48557 218.392703,254.263423 233.661385,239.868101 Z" id="Rectangle" fill="#00FFFF" transform="translate(226.541182, 275.199687) rotate(-15.000000) translate(-226.541182, -275.199687) "></path>
                        <g id="Group-6" transform="translate(119.000000, 358.000000)" fill="#FF0056">
                            <rect id="Rectangle" x="0" y="0" width="26" height="13" rx="6.5"></rect>
                            <rect id="Rectangle" x="54" y="0" width="26" height="13" rx="6.5"></rect>
                        </g>
                        <g id="Group-5" transform="translate(108.000000, 292.000000)">
                            <circle id="Oval" fill="#00CC00" cx="3" cy="3" r="3"></circle>
                            <circle id="Oval-Copy" fill="#B31E1F" cx="12" cy="3" r="3"></circle>
                        </g>
                        <g id="Group-4" transform="translate(71.000000, 120.000000)">
                            <circle id="Oval" fill="#F2F2F2" cx="87.5" cy="87.5" r="87.5"></circle>
                            <mask id="mask-2" fill="white">
                                <use xlink:href="#path-1"></use>
                            </mask>
                            <use id="Oval" fill="#0B0C24" xlink:href="#path-1"></use>
                            <rect id="Rectangle" fill-opacity="0.0886548913" fill="#D8D8D8" mask="url(#mask-2)" transform="translate(53.650742, 80.631627) rotate(12.000000) translate(-53.650742, -80.631627) " x="42.6507422" y="12.1316272" width="22" height="137"></rect>
                            <rect id="Rectangle" fill-opacity="0.0886548913" fill="#D8D8D8" mask="url(#mask-2)" transform="translate(72.008040, 86.460564) rotate(12.000000) translate(-72.008040, -86.460564) " x="69.0080404" y="13.9605639" width="6" height="145"></rect>
                        </g>
                        <rect id="Rectangle" fill="#FFFFFF" transform="translate(47.252255, 275.609425) rotate(-2.000000) translate(-47.252255, -275.609425) " x="0.752255016" y="253.609425" width="93" height="44" rx="22"></rect>
                        <rect id="Rectangle" fill="#FFFFFF" x="19" y="242" width="15" height="19" rx="7.5"></rect>
                        <rect id="Rectangle" fill="#FFFFFF" transform="translate(232.164649, 304.142394) rotate(-72.000000) translate(-232.164649, -304.142394) " x="190.164649" y="284.142394" width="84" height="40" rx="20"></rect>
                        <path d="M239,386 C305.892933,384.410566 355.98851,374.683815 389.286732,356.819747 C439.234065,330.023646 481.457025,266.547963 448.674259,239.625069 C415.891492,212.702176 384.049992,259.416037 395.849407,293.096656 C407.648822,326.777274 459.504272,346.933649 517.015126,312.502049 C574.52598,278.070448 601.45889,129.210454 613.770573,82.3705069 C621.978362,51.1438757 640.721504,23.6870401 670,0" id="Path-4" stroke="#FFFFFF" stroke-width="2"></path>
                    </g>
                </g>
            </g>
        </g>
    </g>
</svg>