<?xml version="1.0" encoding="UTF-8"?>
<svg width="1062px" height="221px" viewBox="0 0 1062 221" version="1.1" xmlns="http://www.w3.org/2000/svg" xmlns:xlink="http://www.w3.org/1999/xlink">
    <!-- Generator: Sketch 57 (83077) - https://sketch.com -->
    <title>Group 21</title>
    <desc>Created with Sketch.</desc>
    <g id="Page-1" stroke="none" stroke-width="1" fill="none" fill-rule="evenodd">
        <g id="Home" transform="translate(-227.000000, -2786.000000)">
            <g id="Group-21" transform="translate(227.000000, 2786.000000)">
                <path d="M261,13 C325.290371,172.674111 408.357606,225.522153 510.201706,171.544127 C612.045805,117.566101 709.97857,106.509727 804,138.375006" id="Path-6" stroke="#0B0C24" stroke-width="2" stroke-dasharray="23"></path>
                <g id="Asset-27" transform="translate(801.000000, 0.000000)">
                    <path d="M252.002637,0 L9.00246094,0 C4.03053905,0 0,4.03051127 0,9.00239888 L0,153 L261,153 L261,9.00239888 C261,4.03250133 256.972568,0.00281421152 252.002637,0 Z M247.501406,40.5005997 L247.501406,139.496402 L13.5189844,139.496402 L13.5189844,13.4985007 L247.501406,13.4985007 L247.501406,40.5005997 Z" id="Shape" fill="#383838" fill-rule="nonzero"></path>
                    <path d="M0,171.001698 C0,173.38908 0.948633113,175.678605 2.63706873,177.366261 C4.32550435,179.053916 6.61532873,180.001351 9.00246094,180 L251.997539,180 C254.384671,180.001351 256.674496,179.053916 258.362931,177.366261 C260.051367,175.678605 261,173.38908 261,171.001698 L261,153 L0,153 L0,171.001698 Z M130.5,159.75 C134.227534,159.75 137.249297,162.772077 137.249297,166.499999 C137.249297,170.227921 134.227534,173.25 130.5,173.25 C126.772466,173.25 123.750703,170.227921 123.750703,166.499999 C123.750703,162.772077 126.772466,159.75 130.5,159.75 Z" id="Shape" fill="#BEC8DC" fill-rule="nonzero"></path>
                    <polygon id="Path" fill="#AFBBD0" points="91 212 171 212 168.181696 189 93.813198 189"></polygon>
                    <path d="M90.6368638,212.002558 C88.999114,211.947247 87.4616122,212.792152 86.6264052,214.20643 C85.7911983,215.620707 85.7911983,217.379293 86.6264052,218.79357 C87.4616122,220.207848 88.999114,221.052753 90.6368638,220.997442 L171.363136,220.997442 C173.000886,221.052753 174.538388,220.207848 175.373595,218.79357 C176.208802,217.379293 176.208802,215.620707 175.373595,214.20643 C174.538388,212.792152 173.000886,211.947247 171.363136,212.002558 L90.6368638,212.002558 L90.6368638,212.002558 Z" id="Path" fill="#BEC8DC"></path>
                    <polygon id="Path" fill="#96A5B9" points="94 189 168 189 166.877248 180 95.1227516 180"></polygon>
                    <ellipse id="Oval" fill="#BEC8DC" cx="130.5" cy="167" rx="6.5" ry="7"></ellipse>
                    <path d="M135.206487,164.210235 C134.830751,162.385638 136.609235,161.317224 136.609235,161.317224 C136.152148,160.71584 135.498389,160.283959 134.755604,160.092694 C133.968359,159.901771 133.136081,160.008092 132.426042,160.390289 C132.151712,160.517235 131.8567,160.596486 131.554334,160.624462 C130.717696,160.624462 130.101489,159.760949 128.503359,160.136602 C127.4012,160.404925 126.243933,161.64409 126.033521,163.122306 C125.877894,164.8058 126.266767,166.494545 127.1457,167.952123 C128.017407,169.415704 128.909153,169.962107 129.53538,169.981621 C130.161607,170.001136 130.797853,169.537669 131.539305,169.430339 C132.280757,169.32301 132.766709,169.698662 133.513171,169.9182 C134.259633,170.137737 134.515133,169.9182 135.366801,169.225438 C136.218469,168.532676 137,166.488542 137,166.488542 C136.034538,166.086318 135.354617,165.222611 135.206487,164.210235 Z" id="Path" fill="#383838"></path>
                    <path d="M133.324318,158.079545 C133.886663,157.501551 134.114689,156.737745 133.945143,156 C133.119782,156.141479 132.357793,156.479069 131.746626,156.974026 C131.202671,157.541846 130.93909,158.268647 131.011888,159 C131.876229,158.907282 132.684896,158.585395 133.324318,158.079545 Z" id="Path" fill="#383838"></path>
                    <rect id="Rectangle" fill="#7F7F7F" x="13" y="13" width="119" height="126"></rect>
                    <g id="Group" transform="translate(55.000000, 17.000000)" fill="#FFFFFF" font-family="AncaMedium, Anca" font-size="30" font-weight="400">
                        <text id="&lt;/&gt;">
                            <tspan x="0" y="23">&lt;/&gt;</tspan>
                        </text>
                    </g>
                    <g id="Group-14" transform="translate(21.000000, 53.000000)">
                        <g id="Group-11" transform="translate(0.000000, 7.000000)">
                            <rect id="Rectangle" fill="#CCF5CC" x="0" y="0" width="28" height="3" rx="1"></rect>
                            <rect id="Rectangle" fill="#66E066" x="31" y="0" width="28" height="3" rx="1"></rect>
                            <rect id="Rectangle" fill="#FFFFFF" x="62" y="0" width="32" height="3" rx="1"></rect>
                        </g>
                        <g id="Group-12">
                            <rect id="Rectangle" fill="#FF0056" x="0" y="0" width="46" height="3" rx="1"></rect>
                            <rect id="Rectangle" fill="#FF0056" x="51" y="0" width="25" height="3" rx="1"></rect>
                            <rect id="Rectangle" fill="#FFFFFF" x="80" y="0" width="13" height="3" rx="1"></rect>
                        </g>
                    </g>
                    <g id="Group-13" transform="translate(21.000000, 77.000000)">
                        <g id="Group-9">
                            <rect id="Rectangle" fill="#CCF5CC" x="0" y="0" width="37" height="3" rx="1"></rect>
                            <rect id="Rectangle" fill="#FFFFFF" x="40" y="2.44249065e-15" width="16" height="3" rx="1"></rect>
                            <rect id="Rectangle" fill="#66E066" x="59" y="0" width="17" height="3" rx="1"></rect>
                        </g>
                        <g id="Group-8" transform="translate(0.000000, 7.000000)">
                            <rect id="Rectangle" fill="#FFFFFF" x="0" y="0" width="37" height="3" rx="1"></rect>
                            <rect id="Rectangle" fill="#FF0056" x="42" y="2.44249065e-15" width="19" height="3" rx="1"></rect>
                            <rect id="Rectangle" fill="#FF0056" x="66" y="2.44249065e-15" width="25" height="3" rx="1"></rect>
                        </g>
                        <g id="Group-2" transform="translate(0.000000, 14.000000)">
                            <rect id="Rectangle" fill="#FFFFFF" x="0" y="0" width="37" height="3" rx="1"></rect>
                            <rect id="Rectangle" fill="#FF0056" x="39.5" y="0" width="28" height="3" rx="1"></rect>
                        </g>
                    </g>
                    <g id="Group-13-Copy" transform="translate(21.000000, 108.000000)">
                        <g id="Group-9" transform="translate(61.000000, 0.000000)" fill="#66E066">
                            <rect id="Rectangle" x="0" y="0" width="17" height="3" rx="1"></rect>
                        </g>
                        <g id="Group-8" fill="#FF0056">
                            <rect id="Rectangle" x="0" y="0" width="37" height="3" rx="1"></rect>
                            <rect id="Rectangle" x="42" y="2.44249065e-15" width="16" height="3" rx="1"></rect>
                        </g>
                        <g id="Group-2" transform="translate(0.000000, 7.000000)">
                            <rect id="Rectangle" fill="#FFFFFF" x="0" y="0" width="37" height="3" rx="1"></rect>
                            <rect id="Rectangle" fill="#FF0056" x="39.5" y="0" width="28" height="3" rx="1"></rect>
                            <rect id="Rectangle" fill="#FF0056" x="70" y="2.44249065e-15" width="23" height="3" rx="1"></rect>
                        </g>
                    </g>
                    <path d="M248,13 L248,138.984698 L240.623313,138.984698 L240.623313,126.600453 C240.624666,126.23703 240.481618,125.888027 240.225781,125.630568 C239.969945,125.373109 239.622382,125.228391 239.259898,125.228393 L215.527317,125.228393 C214.771514,125.228393 214.158814,125.842686 214.158814,126.600453 L214.158814,139 L202.203495,139 L202.203495,126.462737 C202.203495,125.772577 201.64546,125.213092 200.957089,125.213092 L176.995576,125.213092 C176.307205,125.213092 175.749171,125.772577 175.749171,126.462737 L175.749171,138.984698 L163.793851,138.984698 L163.793851,126.498441 C163.795204,126.158015 163.661268,125.831067 163.42165,125.589869 C163.182033,125.348672 162.856467,125.213089 162.516921,125.213092 L138.606282,125.213092 C137.898243,125.213092 137.324265,125.788562 137.324265,126.498441 L137.324265,138.984698 L133,138.984698 L133,13 L248,13 Z" id="Path" fill="#FFFFFF"></path>
                    <rect id="Rectangle" fill="#EFEFEF" x="133" y="13" width="115" height="7"></rect>
                    <circle id="Oval" fill="#EF476F" cx="136" cy="17" r="1"></circle>
                    <circle id="Oval" fill="#FFC43D" cx="138" cy="17" r="1"></circle>
                    <circle id="Oval" fill="#06D6A0" cx="141" cy="17" r="1"></circle>
                    <rect id="Rectangle" fill="#0B0C24" x="176" y="27" width="33" height="7" rx="2.66"></rect>
                    <rect id="Rectangle" fill="#0B0C24" x="156" y="38" width="74" height="7" rx="1.7"></rect>
                    <rect id="Rectangle" fill="#C5C5C5" x="133" y="49" width="115" height="23"></rect>
                    <rect id="Rectangle" fill="#0B0C24" x="138" y="75" width="27" height="27" rx="2.52"></rect>
                    <rect id="Rectangle" fill="#0B0C24" x="177" y="75" width="27" height="27" rx="2.45"></rect>
                    <rect id="Rectangle" fill="#0B0C24" x="215" y="75" width="27" height="27" rx="2.69"></rect>
                    <rect id="Rectangle" fill="#525252" x="138" y="104" width="27" height="4" rx="1.5"></rect>
                    <rect id="Rectangle" fill="#525252" x="177" y="104" width="27" height="4" rx="1.5"></rect>
                    <rect id="Rectangle" fill="#525252" x="215" y="104" width="27" height="4" rx="1.5"></rect>
                    <rect id="Rectangle" fill="#5E5E5E" x="170" y="114" width="39" height="6" rx="1.13"></rect>
                    <path d="M164,127.306667 L164,140 L137,140 L137,127.306667 C137,126.585015 137.585818,126 138.308461,126 L162.712297,126 C163.42801,126.008537 164.002892,126.59189 164,127.306667 Z" id="Path" fill="#0B0C24"></path>
                    <path d="M202,127.27037 L202,140 L175,140 L175,127.27037 C175,126.568764 175.569545,126 176.272115,126 L200.727885,126 C201.430455,126 202,126.568764 202,127.27037 L202,127.27037 Z" id="Path" fill="#0B0C24"></path>
                    <path d="M241,127.394815 L241,140 L214,140 L214,127.394815 C214,126.62448 214.625337,126 215.39673,126 L239.608452,126 C239.978413,126 240.333145,126.147116 240.594259,126.408845 C240.855372,126.670573 241.001371,127.025365 241,127.394815 Z" id="Path" fill="#0B0C24"></path>
                </g>
                <g id="Asset-27">
                    <path d="M252.002637,0 L9.00246094,0 C4.03053905,0 0,4.03051127 0,9.00239888 L0,153 L261,153 L261,9.00239888 C261,4.03250133 256.972568,0.00281421152 252.002637,0 Z M247.501406,40.5005997 L247.501406,139.496402 L13.5189844,139.496402 L13.5189844,13.4985007 L247.501406,13.4985007 L247.501406,40.5005997 Z" id="Shape" fill="#383838" fill-rule="nonzero"></path>
                    <path d="M0,171.001698 C0,173.38908 0.948633113,175.678605 2.63706873,177.366261 C4.32550435,179.053916 6.61532873,180.001351 9.00246094,180 L251.997539,180 C254.384671,180.001351 256.674496,179.053916 258.362931,177.366261 C260.051367,175.678605 261,173.38908 261,171.001698 L261,153 L0,153 L0,171.001698 Z M130.5,159.75 C134.227534,159.75 137.249297,162.772077 137.249297,166.499999 C137.249297,170.227921 134.227534,173.25 130.5,173.25 C126.772466,173.25 123.750703,170.227921 123.750703,166.499999 C123.750703,162.772077 126.772466,159.75 130.5,159.75 Z" id="Shape" fill="#BEC8DC" fill-rule="nonzero"></path>
                    <polygon id="Path" fill="#AFBBD0" points="91 212 171 212 168.181696 189 93.813198 189"></polygon>
                    <path d="M90.6368638,212.002558 C88.999114,211.947247 87.4616122,212.792152 86.6264052,214.20643 C85.7911983,215.620707 85.7911983,217.379293 86.6264052,218.79357 C87.4616122,220.207848 88.999114,221.052753 90.6368638,220.997442 L171.363136,220.997442 C173.000886,221.052753 174.538388,220.207848 175.373595,218.79357 C176.208802,217.379293 176.208802,215.620707 175.373595,214.20643 C174.538388,212.792152 173.000886,211.947247 171.363136,212.002558 L90.6368638,212.002558 L90.6368638,212.002558 Z" id="Path" fill="#BEC8DC"></path>
                    <polygon id="Path" fill="#96A5B9" points="94 189 168 189 166.877248 180 95.1227516 180"></polygon>
                    <ellipse id="Oval" fill="#BEC8DC" cx="130.5" cy="167" rx="7.5" ry="8"></ellipse>
                    <path d="M135.206487,164.210235 C134.830751,162.385638 136.609235,161.317224 136.609235,161.317224 C136.152148,160.71584 135.498389,160.283959 134.755604,160.092694 C133.968359,159.901771 133.136081,160.008092 132.426042,160.390289 C132.151712,160.517235 131.8567,160.596486 131.554334,160.624462 C130.717696,160.624462 130.101489,159.760949 128.503359,160.136602 C127.4012,160.404925 126.243933,161.64409 126.033521,163.122306 C125.877894,164.8058 126.266767,166.494545 127.1457,167.952123 C128.017407,169.415704 128.909153,169.962107 129.53538,169.981621 C130.161607,170.001136 130.797853,169.537669 131.539305,169.430339 C132.280757,169.32301 132.766709,169.698662 133.513171,169.9182 C134.259633,170.137737 134.515133,169.9182 135.366801,169.225438 C136.218469,168.532676 137,166.488542 137,166.488542 C136.034538,166.086318 135.354617,165.222611 135.206487,164.210235 Z" id="Path" fill="#383838"></path>
                    <path d="M133.324318,158.079545 C133.886663,157.501551 134.114689,156.737745 133.945143,156 C133.119782,156.141479 132.357793,156.479069 131.746626,156.974026 C131.202671,157.541846 130.93909,158.268647 131.011888,159 C131.876229,158.907282 132.684896,158.585395 133.324318,158.079545 Z" id="Path" fill="#383838"></path>
                    <rect id="Rectangle" fill="#FFFFFF" fill-rule="nonzero" x="13" y="13" width="234" height="126"></rect>
                    <g id="Group-16" transform="translate(34.000000, 24.000000)">
                        <rect id="Rectangle" fill="#FFCCCC" x="0" y="28" width="82" height="27"></rect>
                        <rect id="Rectangle-Copy-7" fill="#FFF6E1" x="0" y="65" width="44" height="50"></rect>
                        <rect id="Rectangle-Copy-8" fill="#D4F2D4" x="150" y="59" width="44" height="56"></rect>
                        <rect id="Rectangle-Copy-4" fill="#E9EEFF" x="114" y="28" width="82" height="27"></rect>
                        <rect id="Rectangle" fill="#D4F2D4" x="0" y="0" width="196" height="24"></rect>
                    </g>
                    <g id="Group-17" transform="translate(82.000000, 89.000000)" fill="#CBCBCB">
                        <rect id="Rectangle" x="0" y="0" width="98" height="4"></rect>
                        <rect id="Rectangle-Copy-5" x="0" y="5" width="98" height="4"></rect>
                        <rect id="Rectangle-Copy-6" x="0" y="10" width="98" height="4"></rect>
                        <rect id="Rectangle-Copy-9" x="0" y="15" width="98" height="4"></rect>
                        <rect id="Rectangle-Copy-10" x="0" y="20" width="98" height="4"></rect>
                        <rect id="Rectangle-Copy-11" x="0" y="25" width="98" height="4"></rect>
                    </g>
                    <g id="Group-10" transform="translate(11.000000, 13.000000)">
                        <rect id="Rectangle" fill="#EFEFEF" x="2.49013133" y="0.517312349" width="234" height="7"></rect>
                        <g id="Group-15" transform="translate(4.000000, 2.000000)">
                            <circle id="Oval" fill="#EF476F" cx="1.5" cy="1.5" r="1.5"></circle>
                            <ellipse id="Oval" fill="#FFC43D" cx="6" cy="1.5" rx="1.43291646" ry="1.5"></ellipse>
                            <circle id="Oval" fill="#06D6A0" cx="10.5" cy="1.5" r="1.5"></circle>
                        </g>
                    </g>
                </g>
            </g>
        </g>
    </g>
</svg>