<?xml version="1.0" encoding="UTF-8"?>
<svg width="123px" height="79px" viewBox="0 0 123 79" version="1.1" xmlns="http://www.w3.org/2000/svg" xmlns:xlink="http://www.w3.org/1999/xlink">
    <!-- Generator: Sketch 57 (83077) - https://sketch.com -->
    <title>rocketship</title>
    <desc>Created with Sketch.</desc>
    <g id="Page-1" stroke="none" stroke-width="1" fill="none" fill-rule="evenodd">
        <g id="Home" transform="translate(-565.000000, -2919.000000)">
            <g id="rocketship" transform="translate(625.243070, 2959.218768) rotate(79.000000) translate(-625.243070, -2959.218768) translate(583.243070, 2900.218768)">
                <path d="M21.5493133,98.9887738 C22.9126679,95.7943722 21.4688671,92.1060307 18.2862665,90.6529758 C15.1036658,89.1999209 11.3296258,90.505994 9.7567865,93.6047528 C8.25898793,96.8289049 6.94050326,106.490927 10.1997973,107.972576 C13.4590914,109.454225 20.0409669,102.254662 21.5493133,98.9887738 Z" id="Path" fill="#F6CE6E"></path>
                <path d="M42.8560255,108.723835 C43.8358078,106.640016 43.6173426,104.197416 42.2829235,102.316138 C40.9485044,100.434861 38.7008615,99.4007176 36.3866601,99.6032596 C34.0724587,99.8058016 32.043281,101.214258 31.0634986,103.298077 C29.5657001,106.52223 28.2472154,116.184252 31.5065095,117.665901 C34.7658036,119.14755 41.347679,111.947987 42.8560255,108.723835 Z" id="Path" fill="#F6CE6E"></path>
                <path d="M25.9688739,93.5421479 C26.2325708,90.9336106 26.3275017,87.4068681 25.2832619,85.3304724 L17.8470084,81.9289398 C15.5686669,82.4819497 12.9106018,84.8505016 11.085819,86.7390826 C10.54321,87.2975687 10.3079497,88.0816008 10.4546605,88.8424912 C10.6013713,89.6033815 11.1118474,90.2467087 11.8241705,90.5684153 L22.5408138,95.4724655 C23.2513796,95.7963164 24.0762152,95.7613137 24.7561339,95.3784561 C25.4360525,94.9955985 25.887595,94.3118813 25.9688739,93.5421479 L25.9688739,93.5421479 Z" id="Path" fill="#A9B3C7"></path>
                <path d="M32.3925312,96.4741438 C34.2278618,94.5855628 36.8859269,92.2274451 39.1537205,91.664001 L46.589974,95.0655337 C47.6447618,97.1523635 47.539283,100.668672 47.2755861,103.277209 C47.1943071,104.046943 46.7427646,104.73066 46.062846,105.113517 C45.3829274,105.496375 44.5580918,105.531378 43.8475259,105.207527 L33.1308826,100.303477 C32.4185595,99.9817699 31.9080835,99.3384428 31.7613727,98.5775524 C31.6146619,97.8166621 31.8499222,97.03263 32.3925312,96.4741438 L32.3925312,96.4741438 Z" id="Path" fill="#A9B3C7"></path>
                <path d="M41.6113759,37.4898982 L37.0125014,35.4030683 C31.8756852,33.0449506 12.2777292,50.0839163 2.10957546,59.4746506 C0.706050739,60.7660146 0.0455147508,62.6644275 0.348265543,64.5367418 C0.651016336,66.409056 1.87722058,68.0089288 3.61792191,68.80278 L22.867798,77.5987678 L41.6113759,37.4898982 Z" id="Path" fill="#EF476F"></path>
                <path d="M37.0125014,35.3926342 C34.902926,34.4118242 30.2302163,36.8116785 24.7980595,40.6097088 L10.231441,71.807815 L22.8888937,77.5883337 L41.6113759,37.4898982 L37.0125014,35.3926342 Z" id="Path" fill="#000000" opacity="0.1"></path>
                <path d="M65.3968393,48.3622817 L69.9957138,50.4491115 C75.13253,52.7967951 74.6895192,78.6213145 74.0882901,92.3317866 C74.0013258,94.2236464 72.9679913,95.9485369 71.3321751,96.9324231 C69.6963588,97.9163092 67.6727446,98.0300664 65.934781,97.2358367 L46.674357,88.4398489 L65.3968393,48.3622817 Z" id="Path" fill="#EF476F"></path>
                <path d="M69.9851659,50.4595457 C72.0947413,51.4403557 73.2971994,56.4904839 73.8984284,62.9805248 L59.3212619,94.178631 L46.6638092,88.3981123 L65.3968393,48.3622817 L69.9851659,50.4595457 Z" id="Path" fill="#000000" opacity="0.1"></path>
                <path d="M49.1109167,96.2132901 C49.842087,96.5494268 50.6786021,96.5831423 51.4349926,96.3069613 C52.1913832,96.0307803 52.8051482,95.4675238 53.1402058,94.742075 L78.0015526,41.5279139 C84.9842474,26.5757781 86.1761575,8.76468535 72.4006298,2.46245922 C58.625102,-3.83976692 45.6934045,8.61860727 38.7001618,23.5707431 L13.8493629,76.7849042 C13.5095624,77.508191 13.4754794,78.3356867 13.7546707,79.0839217 C14.0338619,79.8321568 14.6032577,80.4393042 15.3366136,80.7707492 L49.1109167,96.2132901 Z" id="Path" fill="#EAEAEA"></path>
                <path d="M18.4693332,66.8828966 L13.8493629,76.7953383 C13.5095624,77.5186251 13.4754794,78.3461208 13.7546707,79.0943559 C14.0338619,79.842591 14.6032577,80.4497383 15.3366136,80.7811834 L49.089821,96.2132901 C49.8209913,96.5494268 50.6575063,96.5831423 51.4138969,96.3069613 C52.1702874,96.0307803 52.7840525,95.4675238 53.1191101,94.742075 L57.7496282,84.8400674 L18.4693332,66.8828966 Z" id="Path" fill="#3F4C58"></path>
                <path d="M47.2755861,103.298077 C47.5498309,100.68954 47.6447618,97.1627976 46.589974,95.0864019 L39.1537205,91.6848693 C37.6594815,92.1688195 36.281103,92.950001 35.1033357,93.9803821 L44.3643719,98.2166467 C44.3749791,99.4395606 44.3186413,100.662146 44.1956059,101.879033 C44.1140794,102.651292 43.6614585,103.337407 42.9796984,103.722193 C42.2979383,104.106979 41.4705392,104.143307 40.7569979,103.819785 L43.8475259,105.228395 C44.5580918,105.552246 45.3829274,105.517243 46.062846,105.134386 C46.7427646,104.751528 47.1943071,104.067811 47.2755861,103.298077 L47.2755861,103.298077 Z" id="Path" fill="#000000" opacity="0.1"></path>
                <path d="M25.9688739,93.5421479 C26.2325708,90.9336106 26.3275017,87.4068681 25.2832619,85.3304724 L17.8470084,81.9289398 C16.3527694,82.41289 14.9743909,83.1940714 13.7966235,84.2244526 L23.0576598,88.4607172 C23.0699684,89.6839239 23.0100953,90.9067987 22.8783459,92.1231036 C22.8016548,92.8951052 22.3508862,93.5822356 21.6693872,93.9659831 C20.9878881,94.3497306 20.1604808,94.3823325 19.4502857,94.0534212 L22.5408138,95.4724655 C23.2513796,95.7963164 24.0762152,95.7613137 24.7561339,95.3784561 C25.4360525,94.9955985 25.887595,94.3118813 25.9688739,93.5421479 L25.9688739,93.5421479 Z" id="Path" fill="#000000" opacity="0.1"></path>
                <path d="M69.890235,42.3313434 L43.3306799,30.1964279 C42.3272806,29.7044447 41.8873675,28.5226147 42.3286316,27.5044174 L46.9696976,17.5711073 C47.1869663,17.0725834 47.5975587,16.6812838 48.1092638,16.485087 C48.6209689,16.2888901 49.1908958,16.3042411 49.69105,16.5276924 L76.250605,28.6626079 C77.2540043,29.1545911 77.6939174,30.3364211 77.2526533,31.3546184 L72.6115873,41.2879285 C72.1332959,42.3005086 70.9334499,42.760551 69.890235,42.3313434 Z" id="Path" fill="#3F4C58"></path>
                <path d="M72.4006298,2.44159092 C67.2527963,0.0374542626 61.2469004,0.247416013 56.2834733,3.00503498 C57.1201599,8.68943772 60.8043483,13.5704653 66.0762026,15.9790138 C71.348057,18.3875623 77.4933172,17.9973082 82.4105653,14.9417017 C81.3134362,9.41900894 77.5842236,4.76207877 72.4006298,2.44159092 Z" id="Path" fill="#EF476F"></path>
                <path d="M53.8891051,46.1919786 L50.7247419,44.7520661 C49.8915823,44.374856 48.9068558,44.7337383 48.5202356,45.5554955 L32.3819833,80.123832 C32.1963124,80.517846 32.1776842,80.9689584 32.3302497,81.3766401 C32.4828153,81.7843217 32.7938966,82.1146942 33.1941699,82.294135 L36.3585331,83.7444817 C37.188697,84.1208928 38.1702105,83.7614617 38.5524915,82.9410522 L54.7012917,48.3727158 C55.0826131,47.5485394 54.7198192,46.5744303 53.8891051,46.1919786 L53.8891051,46.1919786 Z" id="Path" fill="#EF476F"></path>
                <g id="Group" opacity="0.2" transform="translate(20.040967, 69.908800)" fill="#000000">
                    <polygon id="Rectangle" transform="translate(4.479320, 7.382896) rotate(-65.210000) translate(-4.479320, -7.382896) " points="-2.49798449 5.88278788 11.4461106 5.93279169 11.4566238 8.88300512 -2.48747123 8.83300131"></polygon>
                    <polygon id="Rectangle" transform="translate(25.775461, 17.111098) rotate(-65.210000) translate(-25.775461, -17.111098) " points="18.7981569 15.6109898 32.7422519 15.6609936 32.7527652 18.611207 18.8086701 18.5612032"></polygon>
                    <polygon id="Rectangle" transform="translate(13.461863, 15.825574) rotate(-65.210000) translate(-13.461863, -15.825574) " points="10.4362068 14.3373409 16.4769874 14.359 16.4875186 17.3138078 10.446738 17.2921487"></polygon>
                </g>
                <path d="M72.4006298,2.44159092 C71.5428508,2.05272914 70.6580948,1.72495883 69.7531126,1.46078089 C80.8705753,8.68121216 79.4044203,25.1671679 72.9174758,39.1697962 L48.056129,92.3839573 C47.7267388,93.1255135 47.1096162,93.7048057 46.3437552,93.9913603 C45.5778942,94.277915 44.7276955,94.247636 43.9846483,93.9073431 L49.1109167,96.2445925 C49.842087,96.5807293 50.6786021,96.6144448 51.4349926,96.3382638 C52.1913832,96.0620828 52.8051482,95.4988262 53.1402058,94.7733775 L78.0015526,41.5592164 C84.9842474,26.5549098 86.1761575,8.74381706 72.4006298,2.44159092 Z" id="Path" fill="#000000" opacity="0.1"></path>
            </g>
        </g>
    </g>
</svg>